<svg xmlns="http://www.w3.org/2000/svg" width="1598" height="984" viewBox="0 0 1598 984">
<rect width="100%" height="100%" fill="white"/>
<path d="M 709 439 L 710 587 L 719 620 L 731 639 L 744 651 L 760 660 L 781 666 L 809 667 L 826 664 L 845 656 L 872 633 L 873 662 L 924 661 L 923 438 L 872 439 L 870 577 L 864 593 L 850 610 L 837 618 L 823 622 L 802 621 L 788 616 L 774 604 L 765 586 L 762 562 L 762 438 Z" fill="rgb(8,29,50)" fill-rule="evenodd" stroke="none"/>
<path d="M 1055 436 L 1036 442 L 1012 455 L 992 474 L 980 492 L 972 510 L 966 540 L 967 570 L 973 593 L 985 617 L 996 631 L 1012 645 L 1031 656 L 1056 664 L 1076 667 L 1109 666 L 1133 660 L 1165 642 L 1178 629 L 1185 618 L 1144 592 L 1128 610 L 1109 620 L 1083 623 L 1056 615 L 1036 598 L 1024 576 L 1020 553 L 1024 524 L 1035 503 L 1048 490 L 1071 479 L 1094 477 L 1112 481 L 1127 489 L 1145 507 L 1183 483 L 1184 480 L 1164 457 L 1149 447 L 1131 439 L 1100 433 Z" fill="rgb(8,29,50)" fill-rule="evenodd" stroke="none"/>
<path d="M 666 434 L 639 434 L 620 439 L 600 451 L 591 461 L 585 471 L 581 472 L 580 438 L 528 439 L 529 662 L 581 661 L 581 542 L 586 520 L 595 504 L 606 493 L 619 486 L 638 482 L 651 482 L 666 485 Z" fill="rgb(8,29,50)" fill-rule="evenodd" stroke="none"/>
<path d="M 1227 343 L 1228 662 L 1281 661 L 1283 543 L 1381 661 L 1450 662 L 1346 542 L 1437 438 L 1373 438 L 1289 535 L 1281 540 L 1280 342 Z" fill="rgb(8,29,50)" fill-rule="evenodd" stroke="none"/>
<path d="M 108 371 L 398 660 L 427 648 L 444 636 L 465 615 L 479 595 L 490 571 L 499 530 L 499 513 L 494 484 L 484 456 L 468 430 L 451 411 L 431 395 L 402 380 L 362 370 Z" fill="rgb(8,29,50)" fill-rule="evenodd" stroke="none"/>
<path d="M 484 279 L 484 257 L 480 236 L 470 208 L 461 192 L 446 173 L 428 157 L 408 144 L 386 135 L 347 127 L 90 129 L 91 265 L 341 265 L 357 268 L 374 275 L 392 287 L 416 316 L 426 350 L 425 382 L 451 360 L 466 338 L 478 309 Z" fill="rgb(8,29,50)" fill-rule="evenodd" stroke="none"/>
<path d="M 1312 729 L 1304 728 L 1275 728 L 1276 796 L 1285 796 L 1286 771 L 1288 770 L 1304 771 L 1307 769 L 1311 770 L 1315 768 L 1318 765 L 1320 765 L 1322 763 L 1325 757 L 1326 752 L 1326 746 L 1325 741 L 1324 739 L 1318 732 L 1315 731 Z M 1286 737 L 1288 736 L 1304 736 L 1309 738 L 1312 740 L 1314 742 L 1316 746 L 1316 752 L 1315 756 L 1311 760 L 1302 762 L 1287 761 L 1286 760 Z" fill="rgb(67,66,67)" fill-rule="evenodd" stroke="none"/>
<path d="M 1169 728 L 1169 776 L 1170 781 L 1174 787 L 1174 789 L 1177 792 L 1179 792 L 1184 796 L 1200 799 L 1211 796 L 1218 792 L 1221 789 L 1221 787 L 1224 782 L 1225 777 L 1227 774 L 1226 728 L 1218 728 L 1216 729 L 1216 777 L 1213 783 L 1209 787 L 1201 790 L 1195 790 L 1186 787 L 1182 783 L 1179 776 L 1178 771 L 1178 728 Z" fill="rgb(67,66,67)" fill-rule="evenodd" stroke="none"/>
<path d="M 954 728 L 953 730 L 953 733 L 955 736 L 955 740 L 953 743 L 953 760 L 954 767 L 953 770 L 954 781 L 953 790 L 954 791 L 954 796 L 964 795 L 965 791 L 965 787 L 963 784 L 963 776 L 965 772 L 967 770 L 970 769 L 976 769 L 979 771 L 984 776 L 986 779 L 987 783 L 996 796 L 1007 795 L 1006 793 L 1002 789 L 1000 786 L 1000 784 L 995 776 L 990 770 L 993 767 L 996 766 L 999 763 L 1001 763 L 1002 760 L 1004 758 L 1006 752 L 1006 745 L 1005 741 L 1001 734 L 998 732 L 991 729 L 982 728 L 956 729 Z M 964 739 L 967 736 L 984 736 L 988 737 L 991 739 L 994 742 L 996 746 L 996 751 L 995 755 L 991 759 L 986 760 L 984 761 L 967 760 L 965 758 L 963 754 L 963 750 L 965 746 L 965 744 Z" fill="rgb(67,66,67)" fill-rule="evenodd" stroke="none"/>
<path d="M 573 729 L 573 796 L 581 796 L 583 795 L 582 749 L 586 748 L 588 750 L 594 764 L 599 770 L 601 776 L 607 784 L 612 784 L 615 781 L 631 750 L 633 748 L 635 749 L 636 752 L 635 794 L 637 796 L 646 796 L 646 790 L 647 789 L 646 760 L 647 730 L 646 728 L 634 728 L 632 734 L 629 737 L 625 747 L 619 756 L 618 760 L 613 766 L 613 768 L 608 771 L 606 769 L 601 757 L 593 744 L 587 731 L 584 728 Z" fill="rgb(67,66,67)" fill-rule="evenodd" stroke="none"/>
<path d="M 478 728 L 479 796 L 525 796 L 525 792 L 527 790 L 526 788 L 490 788 L 487 785 L 487 768 L 489 766 L 491 765 L 520 765 L 520 758 L 491 758 L 487 754 L 487 740 L 488 738 L 491 736 L 525 735 L 525 728 L 483 729 Z" fill="rgb(67,66,67)" fill-rule="evenodd" stroke="none"/>
<path d="M 376 728 L 377 736 L 396 736 L 399 739 L 399 796 L 408 796 L 410 794 L 409 782 L 409 740 L 410 738 L 412 736 L 431 736 L 433 735 L 433 728 Z" fill="rgb(67,66,67)" fill-rule="evenodd" stroke="none"/>
<path d="M 184 729 L 184 731 L 187 733 L 187 735 L 194 743 L 198 749 L 199 752 L 203 758 L 207 762 L 207 764 L 209 766 L 210 769 L 210 796 L 220 795 L 220 767 L 223 765 L 223 763 L 227 759 L 235 746 L 245 733 L 246 731 L 246 729 L 242 729 L 241 728 L 237 728 L 234 730 L 232 733 L 232 735 L 228 741 L 224 745 L 222 748 L 222 750 L 220 753 L 217 756 L 212 755 L 212 753 L 209 748 L 204 743 L 204 741 L 194 728 L 188 728 L 187 729 Z" fill="rgb(67,66,67)" fill-rule="evenodd" stroke="none"/>
<path d="M 1074 728 L 1069 730 L 1062 735 L 1056 741 L 1055 745 L 1052 749 L 1051 756 L 1051 769 L 1050 772 L 1053 779 L 1059 786 L 1060 789 L 1063 790 L 1066 793 L 1069 795 L 1075 797 L 1081 798 L 1092 798 L 1101 796 L 1105 794 L 1109 791 L 1116 784 L 1120 778 L 1122 771 L 1122 753 L 1120 750 L 1120 747 L 1119 745 L 1115 741 L 1114 738 L 1113 738 L 1111 736 L 1111 735 L 1108 734 L 1105 731 L 1101 729 L 1098 729 L 1095 727 L 1091 728 L 1082 727 Z M 1078 736 L 1081 736 L 1082 735 L 1090 735 L 1093 737 L 1097 737 L 1103 741 L 1106 744 L 1107 747 L 1110 750 L 1112 756 L 1112 768 L 1111 773 L 1106 781 L 1101 786 L 1100 786 L 1098 788 L 1090 790 L 1088 790 L 1086 789 L 1082 790 L 1078 789 L 1070 785 L 1065 780 L 1063 777 L 1061 771 L 1060 766 L 1060 759 L 1061 753 L 1065 746 L 1072 739 Z" fill="rgb(67,66,67)" fill-rule="evenodd" stroke="none"/>
<path d="M 863 729 L 853 735 L 850 738 L 849 741 L 846 744 L 844 748 L 842 755 L 842 771 L 845 780 L 848 785 L 854 791 L 856 791 L 861 795 L 866 797 L 873 798 L 887 798 L 890 796 L 894 796 L 904 790 L 907 787 L 907 760 L 905 759 L 881 759 L 879 760 L 880 767 L 894 767 L 898 771 L 897 779 L 898 783 L 895 786 L 884 790 L 880 790 L 879 789 L 873 790 L 863 786 L 855 777 L 854 769 L 852 767 L 851 761 L 857 745 L 861 741 L 871 736 L 881 735 L 889 737 L 893 741 L 898 744 L 901 741 L 903 737 L 900 733 L 888 728 L 874 727 Z" fill="rgb(67,66,67)" fill-rule="evenodd" stroke="none"/>
<path d="M 703 730 L 697 735 L 694 742 L 694 750 L 695 754 L 698 758 L 705 762 L 710 764 L 721 766 L 728 769 L 733 774 L 734 776 L 734 781 L 733 784 L 729 788 L 722 790 L 710 789 L 705 787 L 703 785 L 701 785 L 699 782 L 697 782 L 692 787 L 693 790 L 701 795 L 706 797 L 713 798 L 724 798 L 730 797 L 739 792 L 741 790 L 744 783 L 744 773 L 743 772 L 743 769 L 739 764 L 732 760 L 724 757 L 722 758 L 710 754 L 705 750 L 704 748 L 704 743 L 709 737 L 713 735 L 723 735 L 728 737 L 734 741 L 736 741 L 740 738 L 741 736 L 740 733 L 733 729 L 723 727 L 715 727 Z" fill="rgb(67,66,67)" fill-rule="evenodd" stroke="none"/>
<path d="M 307 727 L 295 730 L 287 738 L 286 741 L 286 752 L 288 756 L 292 760 L 294 760 L 296 762 L 301 764 L 309 765 L 315 767 L 321 770 L 324 773 L 326 777 L 326 780 L 324 785 L 322 787 L 317 789 L 311 790 L 305 790 L 301 789 L 295 786 L 290 782 L 288 782 L 285 785 L 283 789 L 285 789 L 291 794 L 295 796 L 313 799 L 323 796 L 327 794 L 333 788 L 335 785 L 336 780 L 336 774 L 335 770 L 332 767 L 331 764 L 329 764 L 321 759 L 318 759 L 315 757 L 313 758 L 309 757 L 306 755 L 303 755 L 300 753 L 297 750 L 296 747 L 296 743 L 301 737 L 306 735 L 308 735 L 309 736 L 315 735 L 323 738 L 328 742 L 332 738 L 333 734 L 326 730 L 318 727 L 314 728 Z" fill="rgb(67,66,67)" fill-rule="evenodd" stroke="none"/>
<path d="M 110 728 L 105 730 L 102 733 L 101 733 L 96 740 L 95 751 L 98 756 L 102 760 L 111 764 L 125 767 L 130 770 L 135 776 L 135 782 L 129 789 L 124 790 L 112 789 L 105 786 L 100 782 L 96 783 L 93 789 L 95 789 L 102 795 L 108 797 L 115 798 L 125 798 L 134 796 L 138 793 L 144 786 L 146 781 L 145 771 L 143 767 L 138 762 L 131 759 L 119 757 L 108 752 L 106 750 L 105 744 L 106 742 L 111 737 L 115 735 L 118 735 L 119 736 L 125 735 L 134 739 L 136 742 L 138 742 L 140 740 L 140 738 L 143 735 L 138 731 L 128 727 L 124 728 L 118 727 Z" fill="rgb(67,66,67)" fill-rule="evenodd" stroke="none"/>
<path d="M 88 395 L 89 666 L 358 666 L 360 663 L 91 394 Z" fill="rgb(31,173,72)" fill-rule="evenodd" stroke="none"/>
</svg>